<?xml version="1.0" encoding="UTF-8" standalone="no"?>
<!DOCTYPE svg PUBLIC "-//W3C//DTD SVG 1.1//EN"
 "http://www.w3.org/Graphics/SVG/1.1/DTD/svg11.dtd">
<!-- Generated by graphviz version 2.40.1 (20161225.0304)
 -->
<!-- Title: state transitions Pages: 1 -->
<svg width="384pt" height="274pt"
 viewBox="0.00 0.00 383.74 274.00" xmlns="http://www.w3.org/2000/svg" xmlns:xlink="http://www.w3.org/1999/xlink">
<g id="graph0" class="graph" transform="scale(1 1) rotate(0) translate(4 270)">
<title>state transitions</title>
<polygon fill="#ffffff" stroke="transparent" points="-4,4 -4,-270 379.7415,-270 379.7415,4 -4,4"/>
<!-- initial -->
<g id="node1" class="node">
<title>initial</title>
<ellipse fill="#000000" stroke="#000000" stroke-width="2" cx="239.1795" cy="-260.5" rx="5.5" ry="5.5"/>
</g>
<!-- init -->
<g id="node2" class="node">
<title>init</title>
<polygon fill="transparent" stroke="transparent" stroke-width="2" points="308.1795,-227 170.1795,-227 170.1795,-161 308.1795,-161 308.1795,-227"/>
<text text-anchor="start" x="231.5139" y="-210.2" font-family="Helvetica,sans-Serif" font-size="12.00" fill="#000000">init</text>
<text text-anchor="start" x="175.8315" y="-190.2" font-family="Helvetica,sans-Serif" font-size="12.00" fill="#000000">load/register extensions</text>
<text text-anchor="start" x="176.1795" y="-170.2" font-family="Helvetica,sans-Serif" font-size="12.00" fill="#000000">fire hook events</text>
<polygon fill="#000000" stroke="#000000" points="170.1795,-204 170.1795,-204 308.1795,-204 308.1795,-204 170.1795,-204"/>
<path fill="none" stroke="#000000" stroke-width="2" d="M183.1795,-162C183.1795,-162 295.1795,-162 295.1795,-162 301.1795,-162 307.1795,-168 307.1795,-174 307.1795,-174 307.1795,-214 307.1795,-214 307.1795,-220 301.1795,-226 295.1795,-226 295.1795,-226 183.1795,-226 183.1795,-226 177.1795,-226 171.1795,-220 171.1795,-214 171.1795,-214 171.1795,-174 171.1795,-174 171.1795,-168 177.1795,-162 183.1795,-162"/>
</g>
<!-- initial&#45;&gt;init -->
<g id="edge2" class="edge">
<title>initial&#45;&gt;init</title>
<path fill="none" stroke="#000000" d="M239.1795,-254.8302C239.1795,-250.6096 239.1795,-244.4144 239.1795,-237.5717"/>
<polygon fill="#000000" stroke="#000000" points="242.6796,-237.2378 239.1795,-227.2378 235.6796,-237.2379 242.6796,-237.2378"/>
<text text-anchor="start" x="239.1795" y="-238" font-family="Helvetica,sans-Serif" font-size="10.00" fill="#000000">bootstrap &#160;&#160;</text>
</g>
<!-- init&#45;&gt;init -->
<g id="edge3" class="edge">
<title>init&#45;&gt;init</title>
<path fill="none" stroke="#000000" d="M308.2241,-202.1823C321.1067,-201.1747 330.1795,-198.4473 330.1795,-194 330.1795,-190.873 325.6941,-188.5963 318.5526,-187.1698"/>
<polygon fill="#000000" stroke="#000000" points="318.5938,-183.6454 308.2241,-185.8177 317.6851,-190.5862 318.5938,-183.6454"/>
<text text-anchor="start" x="330.1795" y="-191" font-family="Helvetica,sans-Serif" font-size="10.00" fill="#000000">discover &#160;&#160;</text>
</g>
<!-- ready -->
<g id="node3" class="node">
<title>ready</title>
<polygon fill="transparent" stroke="transparent" stroke-width="2" points="292.1795,-133 186.1795,-133 186.1795,-47 292.1795,-47 292.1795,-133"/>
<text text-anchor="start" x="224.1759" y="-116.2" font-family="Helvetica,sans-Serif" font-size="12.00" fill="#000000">ready</text>
<text text-anchor="start" x="192.1795" y="-96.2" font-family="Helvetica,sans-Serif" font-size="12.00" fill="#000000">http/socket listen</text>
<text text-anchor="start" x="191.8233" y="-76.2" font-family="Helvetica,sans-Serif" font-size="12.00" fill="#000000">database connect</text>
<text text-anchor="start" x="192.1795" y="-56.2" font-family="Helvetica,sans-Serif" font-size="12.00" fill="#000000">job schedule ...</text>
<polygon fill="#000000" stroke="#000000" points="186.1795,-110 186.1795,-110 292.1795,-110 292.1795,-110 186.1795,-110"/>
<path fill="none" stroke="#000000" stroke-width="2" d="M199.1795,-48C199.1795,-48 279.1795,-48 279.1795,-48 285.1795,-48 291.1795,-54 291.1795,-60 291.1795,-60 291.1795,-120 291.1795,-120 291.1795,-126 285.1795,-132 279.1795,-132 279.1795,-132 199.1795,-132 199.1795,-132 193.1795,-132 187.1795,-126 187.1795,-120 187.1795,-120 187.1795,-60 187.1795,-60 187.1795,-54 193.1795,-48 199.1795,-48"/>
</g>
<!-- init&#45;&gt;ready -->
<g id="edge4" class="edge">
<title>init&#45;&gt;ready</title>
<path fill="none" stroke="#000000" d="M239.1795,-160.8078C239.1795,-155.1716 239.1795,-149.1947 239.1795,-143.1965"/>
<polygon fill="#000000" stroke="#000000" points="242.6796,-143.1384 239.1795,-133.1384 235.6796,-143.1385 242.6796,-143.1384"/>
<text text-anchor="middle" x="240.569" y="-144" font-family="Helvetica,sans-Serif" font-size="10.00" fill="#000000"> </text>
</g>
<!-- final -->
<g id="node4" class="node">
<title>final</title>
<ellipse fill="#000000" stroke="#000000" stroke-width="2" cx="288.1795" cy="-9.5" rx="5.5" ry="5.5"/>
<ellipse fill="none" stroke="#000000" stroke-width="2" cx="288.1795" cy="-9.5" rx="9.5" ry="9.5"/>
</g>
<!-- init&#45;&gt;final -->
<g id="edge5" class="edge">
<title>init&#45;&gt;final</title>
<path fill="none" stroke="#000000" d="M283.0285,-160.9904C291.0805,-152.7689 298.4313,-143.3187 303.1795,-133 322.8949,-90.155 327.6682,-69.9486 308.1795,-27 307.2191,-24.8835 305.8623,-22.9224 304.3022,-21.1374"/>
<polygon fill="#000000" stroke="#000000" points="306.5825,-18.4819 296.7625,-14.5046 301.959,-23.7376 306.5825,-18.4819"/>
<text text-anchor="start" x="320.1795" y="-87" font-family="Helvetica,sans-Serif" font-size="10.00" fill="#000000">error &#160;&#160;</text>
</g>
<!-- note_init -->
<g id="node5" class="node">
<title>note_init</title>
<polygon fill="#ffffcc" stroke="#000000" points="158.5389,-108 -.1799,-108 -.1799,-72 164.5389,-72 164.5389,-102 158.5389,-108"/>
<polyline fill="none" stroke="#000000" points="158.5389,-108 158.5389,-102 "/>
<polyline fill="none" stroke="#000000" points="164.5389,-102 158.5389,-102 "/>
<text text-anchor="start" x="8" y="-87" font-family="Helvetica,sans-Serif" font-size="10.00" fill="#000000">app will crash if any extension fail</text>
</g>
<!-- init&#45;&gt;note_init -->
<g id="edge1" class="edge">
<title>init&#45;&gt;note_init</title>
<path fill="none" stroke="#000000" stroke-dasharray="5,2" d="M189.0721,-160.8078C162.6884,-143.3307 131.3593,-122.5777 109.4638,-108.0736"/>
</g>
<!-- ready&#45;&gt;final -->
<g id="edge6" class="edge">
<title>ready&#45;&gt;final</title>
<path fill="none" stroke="#000000" d="M265.4009,-46.922C269.8806,-39.5624 274.2832,-32.3296 278.0056,-26.2142"/>
<polygon fill="#000000" stroke="#000000" points="280.9988,-28.0283 283.2086,-17.6664 275.0194,-24.3886 280.9988,-28.0283"/>
<text text-anchor="start" x="276.1795" y="-30" font-family="Helvetica,sans-Serif" font-size="10.00" fill="#000000">stop &#160;&#160;</text>
</g>
</g>
</svg>
